<?xml version="1.0" encoding="utf-8"?>
<!-- Generator: Adobe Illustrator 17.0.2, SVG Export Plug-In . SVG Version: 6.00 Build 0)  -->
<!DOCTYPE svg PUBLIC "-//W3C//DTD SVG 1.1//EN" "http://www.w3.org/Graphics/SVG/1.1/DTD/svg11.dtd">
<svg version="1.1" id="Layer_1" xmlns="http://www.w3.org/2000/svg" xmlns:xlink="http://www.w3.org/1999/xlink" x="0px" y="0px"
	 width="1380px" height="120px" viewBox="0 0 1380 120" enable-background="new 0 0 1380 120" xml:space="preserve">
<rect x="0" y="109.899" fill="#C6C6C6" width="169.857" height="9.397"/>
<rect x="172.206" y="109.899" fill="#009DB1" width="77.058" height="9.397"/>
<rect x="251.442" y="109.899" fill="#D70926" width="1128.558" height="9.397"/>
<g>
	<path fill="#00463F" d="M162.541,64.883c-0.318-0.733-0.576-1.619-0.746-2.399c-0.257-1.173-0.203-2.485,0.464-3.519
		c0.783-1.215,2.533-1.818,3.907-1.997c0.578-0.075,1.186-0.089,1.768-0.055c2.193,0.129,4.455,1.347,5.445,3.128l0.002,0.002
		c6.822,15.246,22.125,25.868,39.908,25.868c17.784,0,33.087-10.623,39.909-25.87c0.832-1.861,3.252-3,5.445-3.128
		c0.582-0.034,1.19-0.02,1.768,0.055c1.374,0.179,3.124,0.782,3.907,1.997c0.667,1.035,0.721,2.346,0.464,3.519
		c-0.171,0.78-0.429,1.666-0.746,2.399c-8.443,19.49-28.133,32.896-50.746,32.896c-22.614,0-42.073-13.51-50.747-32.897
		L162.541,64.883z"/>
	<circle fill="#00463F" cx="213.288" cy="42.211" r="41.221"/>
	<path fill="#13312E" d="M255.96,81.293"/>
	<path fill="#FFFFFF" d="M211.463,77.681c0.018-1.05,0.883-1.885,1.932-1.867c1.049,0.018,1.885,0.883,1.866,1.932
		c-0.018,1.05-0.883,1.885-1.932,1.867C212.28,79.595,211.444,78.73,211.463,77.681"/>
	<path fill="#FFFFFF" d="M187.751,68.082c0.018-1.049,0.884-1.885,1.933-1.866c1.049,0.018,1.885,0.884,1.867,1.933
		c-0.018,1.048-0.884,1.885-1.933,1.866C188.568,69.996,187.732,69.131,187.751,68.082"/>
	<path fill="#FFFFFF" d="M235.174,68.06c0.018-1.048,0.883-1.885,1.933-1.866c1.049,0.018,1.885,0.883,1.866,1.932
		c-0.018,1.049-0.883,1.885-1.933,1.866C235.991,69.974,235.156,69.109,235.174,68.06"/>
	<g>
		<path fill="#00463F" d="M258.466,81.906c0.239,0.725,0.822,1.266,1.422,1.706c0.443,0.325,0.93,0.591,1.534,0.771
			c0.397,0.118,0.634,0.16,1.126,0.248c-0.129,0.129-0.479,0.406-0.542,0.456c-0.666,0.534-1.428,0.985-2.226,1.29
			c-1.126,0.431-2.291,0.422-3.398-0.063c-0.515-0.226-0.969-0.468-1.369-0.874c-0.404-0.41-0.738-0.945-0.913-1.493
			c-0.102-0.321-0.163-0.674-0.18-1.011c0.546,0.09,1.239,0.048,1.643,0.012c0.576-0.052,1.156-0.225,1.694-0.44
			C257.57,82.382,258.466,81.906,258.466,81.906z"/>
		<path fill="#00463F" d="M267.203,64.93c0-0.679-0.015-1.461-0.138-2.113c-0.579,1.194-1.068,2.59-1.714,3.984
			c-2.342,5.055-4.6,8.688-7.502,11.948c-1.106,1.243-1.832,2.003-2.338,2.478l-0.014,0.001c0.336,0.001,0.658-0.021,0.888-0.041
			c0.576-0.052,1.156-0.225,1.694-0.44c0.313-0.125,1.209-0.601,1.209-0.601c0.239,0.725,0.822,1.266,1.422,1.706
			c0.443,0.325,0.93,0.591,1.534,0.771c0.397,0.118,0.634,0.16,1.126,0.248l-0.001,0.001l0.997-2.402
			c1.572-3.923,2.538-8.169,2.787-12.616L267.203,64.93"/>
	</g>
	<g>
		<path fill="#00463F" d="M168.433,81.906c-0.239,0.725-0.822,1.266-1.422,1.706c-0.443,0.325-0.93,0.591-1.534,0.771
			c-0.397,0.118-0.634,0.16-1.126,0.248c0.129,0.129,0.479,0.406,0.542,0.456c0.666,0.534,1.428,0.985,2.226,1.29
			c1.126,0.431,2.291,0.422,3.398-0.063c0.515-0.226,0.969-0.468,1.369-0.874c0.404-0.41,0.738-0.945,0.913-1.493
			c0.102-0.321,0.163-0.674,0.18-1.011c-0.546,0.09-1.239,0.048-1.644,0.012c-0.576-0.052-1.156-0.225-1.694-0.44
			C169.328,82.382,168.433,81.906,168.433,81.906z"/>
		<path fill="#00463F" d="M159.696,64.93c0-0.679,0.015-1.461,0.138-2.113c0.579,1.194,1.068,2.59,1.714,3.984
			c2.342,5.055,4.6,8.688,7.502,11.948c1.106,1.243,1.832,2.003,2.338,2.478l0.014,0.001c-0.336,0.001-0.658-0.021-0.888-0.041
			c-0.576-0.052-1.156-0.225-1.694-0.44c-0.313-0.125-1.209-0.601-1.209-0.601c-0.239,0.725-0.822,1.266-1.422,1.706
			c-0.443,0.325-0.93,0.591-1.534,0.771c-0.397,0.118-0.634,0.16-1.126,0.248l0.001,0.001l-0.997-2.402
			c-1.572-3.923-2.538-8.169-2.787-12.616L159.696,64.93"/>
	</g>
	<circle fill="#009DB1" stroke="#FFFFFF" stroke-width="0.5" cx="213.288" cy="42.211" r="27.512"/>
	<path fill="#D70926" d="M216.312,38.481c2.454-1.769,6.243-6.577,0.312-12.411c-5.932-5.834-2.471-9.996-2.471-9.996
		c-4.668,2.628-6.776,7.413-0.883,12.004C218.753,32.351,218.55,35.073,216.312,38.481"/>
	<path fill="#D70926" d="M209.496,24.519c-0.366,1.429,1.08,4.144,4.24,6.12c3.16,1.973,1.82,7.17,0.067,8.694
		c1.241-3.172,0.964-5.598-1.714-7.299C209.409,30.334,206.99,27.333,209.496,24.519"/>
	<path fill="#D70926" d="M210.516,39.056c2.382-1.962,2.723-4.313,0.52-5.674c-2.203-1.362-3.108-3.018-2.87-3.862
		c-2.662,1.96-4.199,7.151,0.354,8.898c-2.07-2.077-1.62-4.091,0.817-5.535C211.621,34.639,211.716,36.732,210.516,39.056"/>
	<path fill="#FFFFFF" d="M208.667,49.939c-0.29,0.231-0.457,1.225-0.257,1.587c0.213,0.384,1.731,1.391,2.109,1.664
		c0.745,0.538,1.73,1.133,2.108,0.819c0.347-0.288,0.336-0.767,0.18-1.125c-0.173-0.402-1.785-1.683-1.981-1.818
		C210.828,51.064,209.224,49.498,208.667,49.939"/>
	<path fill="#FFFFFF" d="M210.853,54.008c-0.225-0.14-1.028-0.743-1.414-1.023c-0.587-0.429-1.332-1.17-1.376,0.159
		c-0.014,0.414,0.168,0.967,0.424,1.223c0.385,0.384,1.811,1.366,2.397,1.676c0.367,0.194,1.158,0.71,1.601,0.634
		c0.323-0.055,0.461-0.324,0.464-0.634c0.004-0.492-0.245-0.761-0.399-0.933C212.437,54.982,211.625,54.488,210.853,54.008"/>
	<path fill="#FFFFFF" d="M212.197,57.655c0.312,0.31,0.381,0.684,0.251,0.921c-0.149,0.266-0.318,0.323-0.598,0.347
		c-0.282,0.021-0.779-0.184-0.927-0.251c-0.423-0.192-1.925-1.19-2.359-1.542c-0.733-0.594-0.687-1.667-0.463-1.92
		c0.29-0.325,0.822,0.232,1.362,0.589C210.168,56.267,211.522,56.984,212.197,57.655"/>
	<path fill="#FFFFFF" d="M208.224,57.874c-0.097,0.203-0.077,0.769,0.059,1.093c0.068,0.17,0.27,0.501,0.539,0.672
		c0.326,0.211,1.702,0.923,1.864,1.025c0.114,0.068,0.834,0.29,1.065,0.087c0.499-0.432,0.132-0.78-0.235-1.104
		c-0.159-0.141-1.191-0.756-1.638-1.037C209.297,58.245,208.397,57.508,208.224,57.874"/>
	<path fill="#FFFFFF" d="M207.598,42.059c-0.665,0-1.203-0.537-1.203-1.195c0-0.664,0.539-1.197,1.203-1.197h10.471
		c0.663,0,1.202,0.533,1.202,1.197c0,0.658-0.538,1.195-1.202,1.195H207.598z"/>
	<path fill="#FFFFFF" d="M208.993,47.549c-0.577,0-1.046-0.465-1.046-1.04c0-0.573,0.469-1.04,1.046-1.04h7.682
		c0.576,0,1.045,0.467,1.045,1.04c0,0.575-0.469,1.04-1.045,1.04H208.993z"/>
	<path fill="#FFFFFF" d="M213.65,42.565h-0.699h-4.938c0,0,1.24,0.961,1.344,2.384h3.594h0.699h2.59
		c0.106-1.423,1.346-2.384,1.346-2.384H213.65z"/>
	<path fill="#FFFFFF" d="M208.86,48.03c0,0,0.595,0.482,0.995,1.699c0.561,0.327,1.086,0.812,1.291,1.012
		c0.003,0,0.666,0.503,1.248,1.029l0.29,0.222c-0.069-0.127-0.24-0.479-0.294-0.626c-0.171-0.45-0.347-0.913-0.345-1.502
		c0.016-1.545,0.909-1.665,1.181-1.665c0.687,0,0.998,0.642,1.099,0.853c0.246,0.506,0.725,1.274,1.358,2.055
		c0.261-2.257,1.285-3.076,1.285-3.076H208.86z"/>
	<path fill="#FFFFFF" d="M214.583,57.461c-0.45-0.827-0.596-1.412-0.498-2.904c0.009-0.134-0.102-0.345-0.175-0.484
		c-0.076-0.149-0.134-0.255-0.23-0.391c-0.078-0.106-0.158-0.208-0.242-0.307c-0.03-0.031-0.058-0.063-0.084-0.096
		c0.016,0.297-0.052,0.575-0.207,0.807c-0.085,0.156-0.21,0.265-0.334,0.386c-0.048,0.039-0.12,0.093-0.172,0.134
		c0.118,0.084,0.206,0.151,0.25,0.202c0.187,0.21,0.521,0.581,0.514,1.24c-0.006,0.573-0.329,0.983-0.841,1.074
		c-0.025,0.004-0.148,0.015-0.173,0.015c-0.038,0-0.082-0.014-0.121-0.017c0.084,0.072,0.177,0.142,0.248,0.214
		c0.437,0.434,0.569,1.021,0.328,1.459c-0.259,0.462-0.613,0.553-0.958,0.58c0.256,0.232,0.56,0.535,0.559,0.958
		c-0.001,0.277-0.137,0.533-0.397,0.761c-0.15,0.131-0.353,0.195-0.61,0.195c-0.082,0-0.168-0.008-0.256-0.021
		c-0.036,0.218-0.009,0.376-0.009,0.376s0.013,0.262,0.018,0.397c0,0,0.35,4.362,0.426,4.984c0.064,0.533,0.137,1.155,0.669,1.445
		c0.319,0.174,0.743,0.18,1.08,0.062c0.178-0.063,0.379-0.233,0.498-0.375c0.262-0.294,0.273-0.705,0.307-1.081
		c0.046-0.461,0.069-0.923,0.095-1.383l0.546-7.88C214.817,57.811,214.638,57.56,214.583,57.461"/>
	<path fill="#FFFFFF" d="M217.567,61.737c0.982-2.663,0.977-3.313,0.823-4.503c-0.169-1.311-0.128-1.767-0.781-2.979
		c-0.522-0.942-1.02-1.5-1.899-2.407c-0.818-0.911-1.462-1.909-1.796-2.6c-0.208-0.432-0.426-0.596-0.688-0.596
		c-0.615,0-0.721,0.754-0.725,1.213c-0.002,0.489,0.143,0.887,0.315,1.339c0.262,0.69,0.762,1.162,1.007,1.423
		c0.596,0.636,0.701,1.651,0.72,1.872c0.017,0.198,0.009,0.4,0.009,0.597c-0.005,0.408-0.007,0.826,0.081,1.226
		c0.053,0.256,0.169,0.499,0.284,0.734c0.109,0.23,0.217,0.461,0.393,0.648c-0.076,1.633-0.125,3.17-0.24,4.815
		c-0.008,0.655-0.297,3.359-0.399,5.103c0,0.367-0.291,1.046-0.9,1.358c-0.292,0.15-0.591,0.171-0.96,0.167
		c-0.302-0.006-0.727-0.139-0.982-0.314c-0.4-0.269-0.539-0.766-0.642-1.199l-0.143,1.924c0.523,0.029,1.014,0.082,1.622,0.1
		c1.37,0.041,3.415-0.07,5.08-0.375c-0.092-0.768-0.15-1.417-0.256-2.734C217.412,65.591,217.285,62.506,217.567,61.737z"/>
	<path fill="#FFFFFF" d="M191.941,14.787c1.141,1.363,1.373,3.463-0.416,4.945l-2.058,1.704l-4.546-5.435l2.058-1.705
		C188.779,12.807,190.808,13.433,191.941,14.787 M191.143,15.449c-0.859-1.029-2.342-1.543-3.61-0.492l-1.286,1.064l3.44,4.115
		l1.285-1.066C192.234,18.027,191.996,16.467,191.143,15.449"/>
	<path fill="#FFFFFF" d="M197.686,12.791l-2.522,1.331l0.306,2.042l-0.878,0.464l-1.086-7.433l1.043-0.551l5.522,5.095l-0.87,0.458
		L197.686,12.791z M195.021,13.224l2-1.054L194.5,9.804L195.021,13.224z"/>
	<polygon fill="#FFFFFF" points="204.47,5.068 206.399,11.882 205.714,12.075 200.653,8.176 202.048,13.103 201.1,13.37 
		199.171,6.555 199.855,6.362 204.917,10.261 203.522,5.335 	"/>
	<polygon fill="#FFFFFF" points="212.648,10.463 212.709,11.321 208.174,11.643 207.667,4.588 212.105,4.273 212.167,5.13 
		208.743,5.374 208.902,7.599 212.033,7.376 212.093,8.234 208.964,8.457 209.126,10.713 	"/>
	<path fill="#FFFFFF" d="M219.497,9.941c-0.122,1.049-1.017,1.922-2.465,1.754l-2.846-0.329l0.821-7.029l2.554,0.294
		c1.314,0.152,1.953,1.103,1.84,2.066c-0.064,0.552-0.347,1-0.903,1.32C219.292,8.483,219.586,9.184,219.497,9.941 M218.49,9.792
		c0.072-0.607-0.282-1.262-1.13-1.358l-1.783-0.207l-0.281,2.413l1.782,0.205C217.938,10.945,218.42,10.398,218.49,9.792
		 M217.429,5.471l-1.509-0.173l-0.245,2.098l1.51,0.174c0.706,0.081,1.117-0.409,1.177-0.927
		C218.424,6.113,218.136,5.552,217.429,5.471"/>
	<path fill="#FFFFFF" d="M224.796,11.603l-2.716-0.882l-1.263,1.642l-0.946-0.308l4.619-5.948l1.125,0.366l0.155,7.496l-0.936-0.303
		L224.796,11.603z M222.629,9.995l2.154,0.7l-0.043-3.451L222.629,9.995z"/>
	<polygon fill="#FFFFFF" points="235.087,11.088 231.506,17.207 230.892,16.851 230.189,10.518 227.6,14.943 226.749,14.449 
		230.328,8.33 230.944,8.686 231.646,15.019 234.235,10.594 	"/>
	<polygon fill="#FFFFFF" points="236.698,17.69 235.244,17.906 233.681,19.626 232.926,18.945 237.7,13.702 238.454,14.382 
		236.236,16.818 240.489,16.217 241.347,16.992 237.726,17.53 236.865,22.498 235.998,21.716 	"/>
	<path fill="#FFFFFF" d="M192.827,87.62c-1.003,1.912-2.243,2.633-3.931,1.753c-1.69-0.877-1.781-2.276-0.774-4.196l1.637-3.122
		l0.863,0.448l-1.646,3.139c-0.824,1.57-0.662,2.5,0.331,3.016c0.974,0.506,1.82,0.111,2.648-1.467l1.647-3.14l0.863,0.448
		L192.827,87.62z"/>
	<polygon fill="#FFFFFF" points="200.092,87.432 198.06,86.715 196.064,92.321 195.148,91.997 197.141,86.391 195.111,85.675 
		195.386,84.898 200.368,86.657 	"/>
	
		<rect x="199.697" y="89.821" transform="matrix(0.9697 0.2445 -0.2445 0.9697 28.154 -46.4102)" fill="#FFFFFF" width="2.648" height="0.761"/>
	<path fill="#FFFFFF" d="M208.561,90.447c-0.161,1.102-1.085,2.138-2.599,1.918l-1.18-0.169l-0.33,2.247l-0.963-0.14l0.981-6.703
		l2.145,0.31C208.128,88.128,208.725,89.322,208.561,90.447 M207.589,90.295c0.106-0.722-0.24-1.467-1.131-1.596l-1.14-0.164
		l-0.416,2.845l1.14,0.166C206.932,91.675,207.486,90.997,207.589,90.295"/>
	<path fill="#FFFFFF" d="M211.765,92.6l-1.005-0.024l-0.055,2.52l-0.976-0.021l0.151-6.771l2.355,0.052
		c1.433,0.032,2.123,1.11,2.098,2.161c-0.017,0.866-0.53,1.731-1.551,1.958l1.794,2.707l-1.088-0.023L211.765,92.6z M210.778,91.742
		l1.32,0.028c0.816,0.019,1.238-0.618,1.253-1.274c0.015-0.658-0.379-1.322-1.195-1.339l-1.32-0.03L210.778,91.742z"/>
	<path fill="#FFFFFF" d="M222.443,90.974c0.251,2.005-0.935,3.633-2.877,3.873c-1.93,0.239-3.494-1.046-3.745-3.049
		c-0.253-2.015,0.944-3.653,2.875-3.894C220.636,87.664,222.191,88.961,222.443,90.974 M216.805,91.654
		c0.192,1.55,1.295,2.514,2.655,2.345c1.36-0.168,2.189-1.374,1.994-2.922c-0.191-1.53-1.282-2.495-2.652-2.325
		C217.442,88.92,216.612,90.124,216.805,91.654"/>
	<path fill="#FFFFFF" d="M226.979,86.522l-0.033,0.83c-0.528-0.105-1.083-0.073-1.548,0.053c-0.807,0.218-1.25,0.738-1.102,1.281
		s0.781,0.672,1.733,0.825c1.173,0.168,2.244,0.472,2.548,1.588c0.314,1.144-0.499,1.979-1.771,2.323
		c-0.758,0.206-1.674,0.185-2.547-0.269l0.126-0.844c0.877,0.43,1.615,0.47,2.18,0.314c0.788-0.212,1.224-0.676,1.058-1.279
		c-0.182-0.672-0.92-0.787-1.836-0.926c-1.168-0.18-2.17-0.438-2.437-1.412c-0.281-1.025,0.446-2.022,1.778-2.382
		C225.725,86.463,226.385,86.413,226.979,86.522"/>
	<polygon fill="#FFFFFF" points="231.801,91.676 230.89,92.016 228.501,85.68 229.412,85.339 	"/>
	<polygon fill="#FFFFFF" points="239.396,88.106 236.567,83.504 237.539,89.067 236.63,89.538 232.622,85.545 234.784,90.493 
		233.967,90.916 231.265,84.686 232.399,84.099 236.515,88.211 235.498,82.496 236.638,81.906 240.213,87.683 	"/>
</g>
</svg>
