<?xml version="1.0" encoding="utf-8"?>
<!-- Generator: Adobe Illustrator 17.0.2, SVG Export Plug-In . SVG Version: 6.00 Build 0)  -->
<!DOCTYPE svg PUBLIC "-//W3C//DTD SVG 1.1//EN" "http://www.w3.org/Graphics/SVG/1.1/DTD/svg11.dtd">
<svg version="1.1" id="Layer_1" xmlns="http://www.w3.org/2000/svg" xmlns:xlink="http://www.w3.org/1999/xlink" x="0px" y="0px"
	 width="1380px" height="120px" viewBox="0 0 1380 120" enable-background="new 0 0 1380 120" xml:space="preserve">
<rect y="111.847" fill="#C6C6C6" width="50.288" height="7.449"/>
<rect x="52.151" y="111.847" fill="#009DB1" width="61.088" height="7.449"/>
<rect x="114.965" y="111.847" fill="#D70926" width="1265.035" height="7.449"/>
<g>
	<path fill="#00463F" d="M44.489,76.16c-0.252-0.581-0.457-1.283-0.591-1.902c-0.204-0.93-0.161-1.97,0.368-2.79
		c0.621-0.963,2.008-1.441,3.097-1.583c0.458-0.059,0.94-0.071,1.402-0.044c1.738,0.102,3.532,1.068,4.317,2.48l0.002,0.002
		C58.49,84.409,70.622,92.83,84.719,92.83c14.098,0,26.23-8.421,31.638-20.508c0.66-1.475,2.578-2.378,4.317-2.48
		c0.461-0.027,0.943-0.016,1.402,0.044c1.089,0.142,2.477,0.62,3.097,1.583c0.529,0.82,0.572,1.86,0.368,2.79
		c-0.136,0.618-0.34,1.321-0.591,1.902c-6.693,15.451-22.302,26.078-40.229,26.078c-17.927,0-33.353-10.71-40.23-26.079
		L44.489,76.16z"/>
	<circle fill="#00463F" cx="84.718" cy="58.187" r="32.678"/>
	<path fill="#13312E" d="M118.547,89.169"/>
	<path fill="#FFFFFF" d="M83.272,86.306c0.014-0.832,0.7-1.494,1.532-1.48c0.832,0.014,1.494,0.7,1.479,1.532
		c-0.014,0.832-0.7,1.494-1.532,1.48C83.919,87.823,83.257,87.137,83.272,86.306"/>
	<path fill="#FFFFFF" d="M64.474,78.696c0.014-0.832,0.701-1.494,1.532-1.479c0.832,0.014,1.494,0.701,1.48,1.532
		c-0.014,0.831-0.701,1.494-1.532,1.479C65.122,80.213,64.459,79.528,64.474,78.696"/>
	<path fill="#FFFFFF" d="M102.068,78.679c0.014-0.831,0.7-1.494,1.532-1.479c0.832,0.014,1.494,0.7,1.479,1.532
		c-0.014,0.832-0.7,1.494-1.532,1.479C102.716,80.196,102.054,79.51,102.068,78.679"/>
	<g>
		<path fill="#00463F" d="M120.533,89.655c0.189,0.575,0.652,1.004,1.127,1.352c0.351,0.258,0.737,0.469,1.216,0.611
			c0.315,0.094,0.503,0.127,0.893,0.197c-0.102,0.102-0.38,0.322-0.43,0.361c-0.528,0.423-1.132,0.781-1.765,1.023
			c-0.893,0.342-1.816,0.335-2.694-0.05c-0.408-0.179-0.768-0.371-1.085-0.693c-0.32-0.325-0.585-0.749-0.724-1.184
			c-0.081-0.254-0.129-0.534-0.143-0.801c0.433,0.071,0.982,0.038,1.302,0.01c0.457-0.041,0.916-0.178,1.343-0.349
			C119.823,90.032,120.533,89.655,120.533,89.655z"/>
		<path fill="#00463F" d="M127.459,76.197c0-0.538-0.012-1.158-0.109-1.675c-0.459,0.947-0.847,2.053-1.359,3.158
			c-1.857,4.007-3.647,6.887-5.947,9.472c-0.877,0.985-1.452,1.588-1.853,1.964l-0.011,0.001c0.266,0.001,0.522-0.017,0.704-0.033
			c0.457-0.041,0.916-0.178,1.343-0.349c0.248-0.099,0.958-0.476,0.958-0.476c0.189,0.575,0.652,1.004,1.127,1.352
			c0.351,0.258,0.737,0.469,1.216,0.611c0.315,0.094,0.503,0.127,0.893,0.197l-0.001,0.001l0.79-1.904
			c1.246-3.11,2.012-6.476,2.209-10.001L127.459,76.197"/>
	</g>
	<g>
		<path fill="#00463F" d="M49.16,89.655c-0.189,0.575-0.652,1.004-1.127,1.352c-0.351,0.258-0.737,0.469-1.216,0.611
			c-0.315,0.094-0.503,0.127-0.893,0.197c0.102,0.102,0.38,0.322,0.43,0.361c0.528,0.423,1.132,0.781,1.765,1.023
			c0.893,0.342,1.816,0.335,2.694-0.05c0.408-0.179,0.768-0.371,1.085-0.693c0.32-0.325,0.585-0.749,0.724-1.184
			c0.081-0.254,0.129-0.534,0.143-0.801c-0.433,0.071-0.982,0.038-1.303,0.01c-0.457-0.041-0.916-0.178-1.343-0.349
			C49.869,90.032,49.16,89.655,49.16,89.655z"/>
		<path fill="#00463F" d="M42.233,76.197c0-0.538,0.012-1.158,0.109-1.675c0.459,0.947,0.847,2.053,1.359,3.158
			c1.857,4.007,3.647,6.887,5.947,9.472c0.877,0.985,1.452,1.588,1.853,1.964l0.011,0.001c-0.266,0.001-0.522-0.017-0.704-0.033
			c-0.457-0.041-0.916-0.178-1.343-0.349c-0.248-0.099-0.958-0.476-0.958-0.476c-0.189,0.575-0.652,1.004-1.127,1.352
			c-0.351,0.258-0.737,0.469-1.216,0.611c-0.315,0.094-0.503,0.127-0.893,0.197l0.001,0.001l-0.79-1.904
			c-1.246-3.11-2.012-6.476-2.209-10.001L42.233,76.197"/>
	</g>
	<circle fill="#009DB1" stroke="#FFFFFF" stroke-width="0.5" cx="84.718" cy="58.187" r="21.81"/>
	<path fill="#D70926" d="M87.116,55.23c1.945-1.402,4.949-5.214,0.247-9.839c-4.703-4.625-1.959-7.924-1.959-7.924
		c-3.701,2.083-5.372,5.877-0.7,9.516C89.051,50.37,88.89,52.528,87.116,55.23"/>
	<path fill="#D70926" d="M81.712,44.162c-0.29,1.133,0.856,3.285,3.361,4.852c2.505,1.564,1.443,5.684,0.053,6.892
		c0.984-2.515,0.764-4.438-1.359-5.786C81.643,48.771,79.726,46.392,81.712,44.162"/>
	<path fill="#D70926" d="M82.521,55.686c1.888-1.555,2.159-3.419,0.412-4.498c-1.746-1.08-2.464-2.393-2.275-3.062
		c-2.11,1.554-3.329,5.669,0.281,7.054c-1.641-1.647-1.284-3.243,0.648-4.388C83.397,52.184,83.472,53.843,82.521,55.686"/>
	<path fill="#FFFFFF" d="M81.055,64.313c-0.23,0.183-0.362,0.971-0.204,1.258c0.169,0.304,1.372,1.103,1.672,1.319
		c0.591,0.426,1.371,0.898,1.671,0.649c0.275-0.228,0.266-0.608,0.143-0.892c-0.137-0.319-1.415-1.334-1.57-1.441
		C82.768,65.205,81.497,63.964,81.055,64.313"/>
	<path fill="#FFFFFF" d="M82.788,67.539c-0.178-0.111-0.815-0.589-1.121-0.811c-0.465-0.34-1.056-0.928-1.091,0.126
		c-0.011,0.328,0.133,0.767,0.336,0.97c0.305,0.304,1.436,1.083,1.9,1.329c0.291,0.154,0.918,0.563,1.269,0.503
		c0.256-0.044,0.365-0.257,0.368-0.503c0.003-0.39-0.194-0.603-0.316-0.74C84.044,68.311,83.4,67.92,82.788,67.539"/>
	<path fill="#FFFFFF" d="M83.853,70.43c0.247,0.246,0.302,0.542,0.199,0.73c-0.118,0.211-0.252,0.256-0.474,0.275
		c-0.224,0.017-0.618-0.146-0.735-0.199c-0.335-0.152-1.526-0.943-1.87-1.222c-0.581-0.471-0.545-1.322-0.367-1.522
		c0.23-0.258,0.652,0.184,1.08,0.467C82.245,69.33,83.318,69.898,83.853,70.43"/>
	<path fill="#FFFFFF" d="M80.704,70.604c-0.077,0.161-0.061,0.61,0.047,0.866c0.054,0.135,0.214,0.397,0.427,0.533
		c0.258,0.167,1.349,0.732,1.478,0.813c0.09,0.054,0.661,0.23,0.844,0.069c0.396-0.342,0.105-0.618-0.186-0.875
		c-0.126-0.112-0.944-0.599-1.299-0.822C81.554,70.898,80.841,70.314,80.704,70.604"/>
	<path fill="#FFFFFF" d="M80.208,58.066c-0.527,0-0.954-0.426-0.954-0.947c0-0.526,0.427-0.949,0.954-0.949h8.301
		c0.526,0,0.953,0.423,0.953,0.949c0,0.522-0.426,0.947-0.953,0.947H80.208z"/>
	<path fill="#FFFFFF" d="M81.313,62.419c-0.457,0-0.829-0.369-0.829-0.824c0-0.454,0.372-0.824,0.829-0.824h6.09
		c0.457,0,0.828,0.37,0.828,0.824c0,0.456-0.372,0.824-0.828,0.824H81.313z"/>
	<path fill="#FFFFFF" d="M85.005,58.468h-0.554h-3.915c0,0,0.983,0.762,1.065,1.89h2.849h0.554h2.053
		c0.084-1.128,1.067-1.89,1.067-1.89H85.005z"/>
	<path fill="#FFFFFF" d="M81.208,62.8c0,0,0.472,0.382,0.789,1.347c0.445,0.259,0.861,0.644,1.023,0.802
		c0.002,0,0.528,0.399,0.989,0.816l0.23,0.176c-0.055-0.101-0.19-0.38-0.233-0.496c-0.136-0.357-0.275-0.724-0.274-1.191
		c0.013-1.225,0.721-1.32,0.936-1.32c0.545,0,0.791,0.509,0.871,0.676c0.195,0.401,0.575,1.01,1.077,1.629
		c0.207-1.789,1.019-2.438,1.019-2.438L81.208,62.8L81.208,62.8z"/>
	<path fill="#FFFFFF" d="M85.745,70.276c-0.357-0.656-0.472-1.119-0.395-2.302c0.007-0.106-0.081-0.274-0.139-0.384
		c-0.06-0.118-0.106-0.202-0.182-0.31c-0.062-0.084-0.125-0.165-0.192-0.243c-0.024-0.025-0.046-0.05-0.067-0.076
		c0.013,0.235-0.041,0.456-0.164,0.64c-0.067,0.124-0.166,0.21-0.265,0.306c-0.038,0.031-0.095,0.074-0.136,0.106
		c0.094,0.067,0.163,0.12,0.198,0.16c0.148,0.166,0.413,0.461,0.407,0.983c-0.005,0.454-0.261,0.779-0.667,0.851
		c-0.02,0.003-0.117,0.012-0.137,0.012c-0.03,0-0.065-0.011-0.096-0.013c0.067,0.057,0.14,0.113,0.197,0.17
		c0.346,0.344,0.451,0.809,0.26,1.157c-0.205,0.366-0.486,0.438-0.759,0.46c0.203,0.184,0.444,0.424,0.443,0.759
		c-0.001,0.22-0.109,0.423-0.315,0.603c-0.119,0.104-0.28,0.155-0.484,0.155c-0.065,0-0.133-0.006-0.203-0.017
		c-0.029,0.173-0.007,0.298-0.007,0.298s0.01,0.208,0.014,0.315c0,0,0.277,3.458,0.338,3.951c0.051,0.423,0.109,0.916,0.53,1.146
		c0.253,0.138,0.589,0.143,0.856,0.049c0.141-0.05,0.3-0.185,0.395-0.297c0.208-0.233,0.216-0.559,0.243-0.857
		c0.036-0.365,0.055-0.732,0.075-1.096l0.433-6.247C85.93,70.554,85.789,70.355,85.745,70.276"/>
	<path fill="#FFFFFF" d="M88.111,73.666c0.778-2.111,0.775-2.626,0.652-3.57c-0.134-1.039-0.101-1.401-0.619-2.362
		c-0.414-0.747-0.809-1.189-1.505-1.908c-0.648-0.722-1.159-1.513-1.424-2.061c-0.165-0.342-0.338-0.472-0.545-0.472
		c-0.488,0-0.572,0.598-0.575,0.962c-0.002,0.388,0.113,0.703,0.25,1.061c0.208,0.547,0.604,0.921,0.798,1.128
		c0.472,0.504,0.556,1.309,0.571,1.484c0.013,0.157,0.007,0.317,0.007,0.473c-0.004,0.323-0.006,0.655,0.064,0.972
		c0.042,0.203,0.134,0.396,0.225,0.582c0.086,0.182,0.172,0.365,0.312,0.514c-0.06,1.295-0.099,2.513-0.19,3.817
		c-0.006,0.519-0.235,2.663-0.316,4.045c0,0.291-0.231,0.829-0.713,1.077c-0.231,0.119-0.469,0.136-0.761,0.132
		c-0.239-0.005-0.576-0.11-0.778-0.249c-0.317-0.213-0.427-0.607-0.509-0.951l-0.113,1.525c0.415,0.023,0.804,0.065,1.286,0.079
		c1.086,0.033,2.707-0.055,4.027-0.297c-0.073-0.609-0.119-1.123-0.203-2.167C87.988,76.721,87.887,74.276,88.111,73.666z"/>
	<path fill="#FFFFFF" d="M67.796,36.447c0.905,1.081,1.088,2.745-0.33,3.92l-1.631,1.351l-3.604-4.309l1.631-1.352
		C65.289,34.877,66.897,35.373,67.796,36.447 M67.163,36.971c-0.681-0.816-1.857-1.223-2.862-0.39l-1.019,0.843l2.727,3.262
		l1.019-0.845C68.028,39.015,67.839,37.778,67.163,36.971"/>
	<path fill="#FFFFFF" d="M72.35,34.864l-1.999,1.055l0.243,1.619l-0.696,0.368l-0.861-5.893l0.827-0.437l4.378,4.039l-0.69,0.363
		L72.35,34.864z M70.237,35.207l1.585-0.836l-1.999-1.876L70.237,35.207z"/>
	<polygon fill="#FFFFFF" points="77.728,28.742 79.257,34.144 78.714,34.297 74.702,31.206 75.808,35.112 75.056,35.323 
		73.527,29.921 74.069,29.768 78.082,32.859 76.976,28.953 	"/>
	<polygon fill="#FFFFFF" points="84.211,33.019 84.259,33.699 80.664,33.954 80.262,28.361 83.781,28.112 83.83,28.791 
		81.115,28.984 81.241,30.748 83.723,30.571 83.771,31.252 81.291,31.428 81.419,33.217 	"/>
	<path fill="#FFFFFF" d="M89.641,32.605c-0.097,0.832-0.806,1.524-1.954,1.39l-2.256-0.261l0.651-5.572l2.025,0.233
		c1.042,0.12,1.548,0.874,1.459,1.638c-0.051,0.438-0.275,0.793-0.716,1.046C89.478,31.449,89.711,32.005,89.641,32.605
		 M88.842,32.487c0.057-0.481-0.224-1-0.896-1.077l-1.413-0.164l-0.223,1.913l1.413,0.163
		C88.405,33.401,88.787,32.967,88.842,32.487 M88.001,29.061l-1.196-0.137l-0.194,1.663l1.197,0.138
		c0.56,0.064,0.886-0.324,0.933-0.735C88.79,29.57,88.562,29.126,88.001,29.061"/>
	<path fill="#FFFFFF" d="M93.841,33.922l-2.153-0.699l-1.001,1.302l-0.75-0.244l3.662-4.715l0.892,0.29l0.123,5.942l-0.742-0.24
		L93.841,33.922z M92.123,32.648l1.708,0.555l-0.034-2.736L92.123,32.648z"/>
	<polygon fill="#FFFFFF" points="101.999,33.514 99.161,38.365 98.674,38.083 98.117,33.062 96.064,36.57 95.39,36.179 
		98.227,31.328 98.715,31.61 99.272,36.63 101.324,33.123 	"/>
	<polygon fill="#FFFFFF" points="103.277,38.748 102.124,38.919 100.885,40.283 100.286,39.743 104.071,35.586 104.669,36.125 
		102.91,38.057 106.282,37.58 106.962,38.195 104.092,38.621 103.409,42.559 102.722,41.94 	"/>
	<path fill="#FFFFFF" d="M68.498,94.185c-0.795,1.516-1.778,2.087-3.116,1.39c-1.34-0.695-1.412-1.804-0.614-3.326l1.298-2.475
		l0.684,0.355l-1.305,2.488c-0.653,1.245-0.525,1.982,0.262,2.391c0.772,0.401,1.443,0.088,2.099-1.163l1.306-2.489l0.684,0.355
		L68.498,94.185z"/>
	<polygon fill="#FFFFFF" points="74.257,94.036 72.646,93.467 71.064,97.912 70.338,97.655 71.918,93.211 70.309,92.643 
		70.527,92.027 74.476,93.421 	"/>
	
		<rect x="73.951" y="95.935" transform="matrix(-0.9697 -0.2445 0.2445 -0.9697 124.1966 207.8889)" fill="#FFFFFF" width="2.099" height="0.603"/>
	<path fill="#FFFFFF" d="M80.971,96.426c-0.128,0.874-0.86,1.695-2.06,1.52l-0.935-0.134l-0.262,1.781l-0.763-0.111l0.778-5.314
		l1.7,0.246C80.628,94.588,81.101,95.534,80.971,96.426 M80.2,96.305c0.084-0.572-0.19-1.163-0.897-1.265L78.4,94.91l-0.33,2.255
		l0.904,0.132C79.68,97.399,80.119,96.862,80.2,96.305"/>
	<path fill="#FFFFFF" d="M83.511,98.133l-0.797-0.019l-0.044,1.998l-0.774-0.017l0.12-5.368l1.867,0.041
		c1.136,0.025,1.683,0.88,1.663,1.713c-0.013,0.687-0.42,1.372-1.23,1.552l1.422,2.146l-0.863-0.018L83.511,98.133z M82.729,97.453
		l1.046,0.022c0.647,0.015,0.981-0.49,0.993-1.01c0.012-0.522-0.3-1.048-0.947-1.061l-1.046-0.024L82.729,97.453z"/>
	<path fill="#FFFFFF" d="M91.976,96.844c0.199,1.589-0.741,2.88-2.281,3.07c-1.53,0.189-2.77-0.829-2.969-2.417
		c-0.201-1.597,0.748-2.896,2.279-3.087C90.543,94.22,91.776,95.248,91.976,96.844 M87.506,97.383
		c0.152,1.229,1.027,1.993,2.105,1.859c1.078-0.133,1.735-1.089,1.581-2.316c-0.151-1.213-1.016-1.978-2.102-1.843
		C88.011,95.215,87.353,96.17,87.506,97.383"/>
	<path fill="#FFFFFF" d="M95.572,93.314l-0.026,0.658c-0.419-0.083-0.859-0.058-1.227,0.042c-0.64,0.173-0.991,0.585-0.874,1.016
		c0.117,0.43,0.619,0.533,1.374,0.654c0.93,0.133,1.779,0.374,2.02,1.259c0.249,0.907-0.396,1.569-1.404,1.842
		c-0.601,0.163-1.327,0.147-2.019-0.213l0.1-0.669c0.695,0.341,1.28,0.373,1.728,0.249c0.625-0.168,0.97-0.536,0.839-1.014
		c-0.144-0.533-0.729-0.624-1.455-0.734c-0.926-0.143-1.72-0.347-1.932-1.119c-0.223-0.813,0.354-1.603,1.41-1.888
		C94.578,93.268,95.101,93.228,95.572,93.314"/>
	<polygon fill="#FFFFFF" points="99.395,97.4 98.672,97.67 96.778,92.647 97.501,92.377 	"/>
	<polygon fill="#FFFFFF" points="105.415,94.57 103.173,90.922 103.943,95.332 103.223,95.705 100.045,92.54 101.759,96.462 
		101.112,96.798 98.97,91.859 99.869,91.394 103.132,94.653 102.325,90.123 103.229,89.655 106.063,94.235 	"/>
</g>
</svg>
